<?xml version="1.0" encoding="utf-8"?>
<!-- Generator: Adobe Illustrator 15.1.0, SVG Export Plug-In . SVG Version: 6.00 Build 0)  -->
<!DOCTYPE svg PUBLIC "-//W3C//DTD SVG 1.0//EN" "http://www.w3.org/TR/2001/REC-SVG-20010904/DTD/svg10.dtd">
<svg version="1.0" id="Calque_1" xmlns="http://www.w3.org/2000/svg" xmlns:xlink="http://www.w3.org/1999/xlink" x="0px" y="0px"
	 width="213px" height="300px" viewBox="0 0 213 300" enable-background="new 0 0 213 300" xml:space="preserve">
<polygon fill="#FCEA0D" points="63.208,271.459 49.86,292.348 70.042,284.089 74.325,292.348 90.187,281.904 "/>
<polygon fill="#F5CF1D" points="150.012,271.459 163.36,292.348 143.178,284.089 138.895,292.348 123.033,281.904 "/>
<path fill="#3996D2" d="M16.269,181.486c0,57.092,40.373,103.376,90.177,103.376V78.109
	C56.642,78.109,16.269,124.393,16.269,181.486z"/>
<path fill="#2780B9" d="M196.622,181.486c0-57.094-40.374-103.377-90.176-103.377v206.753
	C156.248,284.862,196.622,238.578,196.622,181.486z"/>
<path fill="#3996D2" d="M20.47,78.376c0,13.768,2.641,28.387,7.389,42.467l0,0c0,0,37.785,47.881,78.587,47.881V5.514
	C58.961,5.514,20.47,25.78,20.47,78.376z"/>
<path fill="#2780B9" d="M192.424,78.376c0-52.596-38.493-72.862-85.979-72.862V154.88c40.802,0,78.59-34.037,78.59-34.037
	C184.202,123.315,192.424,94.562,192.424,78.376z"/>
<path fill="#DCE0E1" d="M123.998,126.678c0,0,44.38-4.606,44.448-27.764c0.068-23.164-18.485-24.679-28.729-22.324
	C129.474,78.952,119.917,113.122,123.998,126.678z"/>
<path fill="#333A3A" d="M154.019,95.193c-3.091-9.023-12.562-14.034-21.648-11.753c-4.539,7.47-8.103,19.603-9.082,29.889
	c4.742,5.228,12.307,7.435,19.405,5C152.212,115.07,157.281,104.711,154.019,95.193z"/>
<path fill="#EBF0F1" d="M83.128,126.36c0,0-43.666-9.171-41.341-32.213c2.328-23.045,20.939-22.634,30.887-19.231
	C82.619,78.323,88.59,113.299,83.128,126.36z"/>
<path fill="#475050" d="M56.522,91.94c4.01-8.654,13.949-12.66,22.75-9.451c3.743,7.898,6.031,20.334,5.943,30.666
	c-5.257,4.71-13.01,6.125-19.821,2.97C56.267,111.897,52.293,101.068,56.522,91.94z"/>
<polygon fill="#2780B9" points="44.773,56.373 59.738,52.409 58.27,38.643 53.377,44.28 48.897,38.347 45.391,46.69 35.272,41.999 
	"/>
<polygon fill="#2780B9" points="71.556,30.408 79.326,28.708 80.541,18.995 77.385,24.701 76.047,20.694 74.712,22.879 
	71.556,18.995 "/>
<polygon fill="#2780B9" points="81.293,56.072 92.643,54.845 94.639,46.56 89.575,50.396 87.964,47.686 86.353,51.315 
	82.673,44.106 "/>
<polygon fill="#3996D2" points="164.547,57.036 149.583,53.072 151.051,39.308 155.946,44.945 160.426,39.012 163.933,47.354 
	174.051,42.664 "/>
<polygon fill="#3996D2" points="137.768,31.072 129.995,29.372 128.779,19.658 131.939,25.364 133.274,21.357 134.608,23.542 
	137.768,19.658 "/>
<polygon fill="#3996D2" points="128.031,56.736 116.678,55.508 114.682,47.225 119.746,51.059 121.357,48.35 122.968,51.98 
	126.651,44.77 "/>
<polygon fill="#2780B9" points="69.652,262.838 63.458,248.995 76.574,255.917 76.574,242.802 83.131,248.266 84.953,239.159 
	91.875,256.281 "/>
<polygon fill="#3996D2" points="142.877,262.838 149.07,248.995 135.955,255.917 135.955,242.802 129.397,248.266 127.576,239.159 
	120.654,256.281 "/>
<polygon fill="#2780B9" points="62.917,219.728 53.446,196.898 66.561,210.014 68.382,205.884 76.033,212.928 79.312,208.312 
	86.598,215.479 "/>
<polygon fill="#3996D2" points="150.3,219.728 159.771,196.898 146.656,210.014 144.834,205.884 137.184,212.928 133.905,208.312 
	126.619,215.479 "/>
<path fill="#3996D2" d="M187.728,136.668c0,0-36.213,58.574-19.282,119.878C228.747,216.372,187.728,136.668,187.728,136.668z"/>
<path fill="#2780B9" d="M24.973,136.668c0,0,36.357,58.574,19.425,119.878C-15.904,216.372,24.973,136.668,24.973,136.668z"/>
<path fill="#F5CF1D" d="M27.856,120.843c13.385,39.71,42.604,55.597,78.59,98.884v-59.99
	C65.642,159.737,27.856,120.843,27.856,120.843z"/>
<path fill="#FCEA0D" d="M106.446,159.737v59.99c35.984-43.287,65.203-59.174,78.586-98.884
	C185.032,120.843,147.248,159.737,106.446,159.737z"/>
<path fill="#FCEA0D" d="M27.859,120.843L27.859,120.843c13.385,39.71,42.604,50.74,78.587,94.027v-59.99
	C65.644,154.88,27.859,120.843,27.859,120.843z"/>
<path fill="#F5CF1D" d="M185.036,120.843L185.036,120.843c-13.387,39.71-42.606,50.74-78.59,94.027v-59.99
	C147.248,154.88,185.036,120.843,185.036,120.843z"/>
</svg>
