<?xml version="1.0" encoding="utf-8"?>
<!-- Generator: Adobe Illustrator 15.1.0, SVG Export Plug-In . SVG Version: 6.00 Build 0)  -->
<!DOCTYPE svg PUBLIC "-//W3C//DTD SVG 1.0//EN" "http://www.w3.org/TR/2001/REC-SVG-20010904/DTD/svg10.dtd">
<svg version="1.0" id="Calque_1" xmlns="http://www.w3.org/2000/svg" xmlns:xlink="http://www.w3.org/1999/xlink" x="0px" y="0px"
	 width="213px" height="300px" viewBox="0 0 213 300" enable-background="new 0 0 213 300" xml:space="preserve">
<polygon fill="#FCEA0D" points="63.472,270.4 50.203,291.167 70.266,282.957 74.526,291.167 90.294,280.784 "/>
<polygon fill="#F5CF1D" points="149.773,270.4 163.043,291.167 142.979,282.957 138.719,291.167 122.951,280.784 "/>
<path fill="#94A4A5" d="M16.808,180.95c0,56.759,40.138,102.775,89.651,102.775V78.174C56.946,78.174,16.808,124.188,16.808,180.95z
	"/>
<path fill="#7F8B8C" d="M196.112,180.95c0-56.762-40.139-102.776-89.653-102.776v205.551
	C155.973,283.725,196.112,237.709,196.112,180.95z"/>
<path fill="#94A4A5" d="M20.983,78.438c0,13.688,2.627,28.223,7.346,42.221l0,0c0,0,37.566,47.603,78.131,47.603V6
	C59.252,6,20.983,26.148,20.983,78.438z"/>
<path fill="#7F8B8C" d="M191.938,78.438C191.938,26.148,153.668,6,106.46,6v148.499c40.565,0,78.132-33.84,78.132-33.84
	C183.763,123.117,191.938,94.531,191.938,78.438z"/>
<path fill="#DCE0E1" d="M123.91,126.46c0,0,44.123-4.58,44.19-27.603c0.068-23.029-18.378-24.536-28.563-22.194
	C129.353,79.011,119.853,112.982,123.91,126.46z"/>
<path fill="#333A3A" d="M153.757,95.159c-3.073-8.971-12.49-13.953-21.523-11.685c-4.512,7.426-8.055,19.489-9.028,29.715
	c4.714,5.198,12.234,7.393,19.292,4.972C151.959,114.919,157,104.621,153.757,95.159z"/>
<path fill="#EBF0F1" d="M83.277,126.145c0,0-43.412-9.119-41.099-32.026c2.314-22.911,20.817-22.502,30.706-19.12
	C82.771,78.386,88.707,113.159,83.277,126.145z"/>
<path fill="#475050" d="M56.827,91.924c3.985-8.604,13.866-12.586,22.616-9.396c3.721,7.852,5.998,20.216,5.908,30.488
	c-5.227,4.683-12.934,6.089-19.704,2.953C56.572,111.766,52.622,100.999,56.827,91.924z"/>
<polygon fill="#7F8B8C" points="45.146,56.564 60.024,52.623 58.564,38.937 53.699,44.541 49.245,38.643 45.759,46.938 35.7,42.273 
	"/>
<polygon fill="#7F8B8C" points="71.771,30.75 79.498,29.06 80.706,19.402 77.567,25.076 76.238,21.092 74.911,23.265 71.771,19.402 
	"/>
<polygon fill="#7F8B8C" points="81.452,56.264 92.738,55.044 94.721,46.808 89.688,50.622 88.086,47.927 86.484,51.536 
	82.824,44.368 "/>
<polygon fill="#94A4A5" points="164.224,57.223 149.346,53.282 150.806,39.598 155.671,45.202 160.125,39.303 163.611,47.597 
	173.671,42.934 "/>
<polygon fill="#94A4A5" points="137.599,31.41 129.873,29.719 128.664,20.062 131.804,25.735 133.132,21.751 134.459,23.924 
	137.599,20.062 "/>
<polygon fill="#94A4A5" points="127.918,56.925 116.633,55.704 114.649,47.468 119.683,51.281 121.285,48.587 122.886,52.196 
	126.546,45.028 "/>
<polygon fill="#7F8B8C" points="69.879,261.83 63.721,248.066 76.76,254.948 76.76,241.909 83.28,247.342 85.091,238.287 
	91.972,255.31 "/>
<polygon fill="#94A4A5" points="142.679,261.83 148.836,248.066 135.798,254.948 135.798,241.909 129.278,247.342 127.467,238.287 
	120.585,255.31 "/>
<polygon fill="#7F8B8C" points="63.185,218.969 53.768,196.272 66.807,209.312 68.618,205.206 76.224,212.209 79.484,207.62 
	86.728,214.745 "/>
<polygon fill="#94A4A5" points="150.059,218.969 159.476,196.272 146.437,209.312 144.626,205.206 137.02,212.209 133.76,207.62 
	126.517,214.745 "/>
<path fill="#94A4A5" d="M187.27,136.392c0,0-36.004,58.234-19.169,119.181C228.05,215.633,187.27,136.392,187.27,136.392z"/>
<path fill="#7F8B8C" d="M25.459,136.392c0,0,36.147,58.234,19.312,119.181C-15.179,215.633,25.459,136.392,25.459,136.392z"/>
<path fill="#F5CF1D" d="M28.327,120.659c13.308,39.479,42.356,55.274,78.131,98.31v-59.642
	C65.893,159.328,28.327,120.659,28.327,120.659z"/>
<path fill="#FCEA0D" d="M106.458,159.328v59.642c35.775-43.036,64.824-58.831,78.131-98.31
	C184.59,120.659,147.024,159.328,106.458,159.328z"/>
<path fill="#FCEA0D" d="M28.329,120.659L28.329,120.659c13.308,39.479,42.356,50.445,78.131,93.481v-59.641
	C65.895,154.499,28.329,120.659,28.329,120.659z"/>
<path fill="#F5CF1D" d="M184.592,120.659L184.592,120.659c-13.308,39.479-42.357,50.445-78.132,93.481v-59.641
	C147.025,154.499,184.592,120.659,184.592,120.659z"/>
</svg>
