<?xml version="1.0" encoding="utf-8"?>
<!-- Generator: Adobe Illustrator 15.1.0, SVG Export Plug-In . SVG Version: 6.00 Build 0)  -->
<!DOCTYPE svg PUBLIC "-//W3C//DTD SVG 1.0//EN" "http://www.w3.org/TR/2001/REC-SVG-20010904/DTD/svg10.dtd">
<svg version="1.0" id="Calque_1" xmlns="http://www.w3.org/2000/svg" xmlns:xlink="http://www.w3.org/1999/xlink" x="0px" y="0px"
	 width="213px" height="300px" viewBox="0 0 213 300" enable-background="new 0 0 213 300" xml:space="preserve">
<polygon fill="#FCEA0D" points="63.567,270.891 50.274,291.696 70.374,283.47 74.644,291.696 90.439,281.294 "/>
<polygon fill="#F5CF1D" points="150.027,270.891 163.323,291.696 143.221,283.47 138.955,291.696 123.156,281.294 "/>
<path fill="#9DC31C" d="M16.817,181.274c0,56.865,40.213,102.966,89.818,102.966V78.308C57.03,78.308,16.817,124.407,16.817,181.274
	z"/>
<path fill="#88AA2E" d="M196.453,181.274c0-56.867-40.214-102.966-89.818-102.966V284.24
	C156.239,284.24,196.453,238.139,196.453,181.274z"/>
<path fill="#9DC31C" d="M20.999,78.573c0,13.714,2.634,28.275,7.36,42.299l0,0c0,0,37.635,47.691,78.276,47.691V6
	C59.34,6,20.999,26.186,20.999,78.573z"/>
<path fill="#88AA2E" d="M192.271,78.573C192.271,26.186,153.931,6,106.635,6v148.774c40.641,0,78.278-33.902,78.278-33.902
	C184.082,123.334,192.271,94.695,192.271,78.573z"/>
<path fill="#DCE0E1" d="M124.117,126.684c0,0,44.204-4.588,44.272-27.654c0.068-23.072-18.413-24.582-28.616-22.236
	C129.571,79.147,120.052,113.181,124.117,126.684z"/>
<path fill="#333A3A" d="M154.02,95.324c-3.079-8.988-12.513-13.979-21.562-11.706c-4.521,7.44-8.07,19.525-9.046,29.769
	c4.723,5.208,12.259,7.407,19.33,4.981C152.219,115.122,157.269,104.804,154.02,95.324z"/>
<path fill="#EBF0F1" d="M83.409,126.367c0,0-43.493-9.135-41.174-32.085c2.319-22.954,20.856-22.544,30.761-19.155
	C82.901,78.521,88.849,113.358,83.409,126.367z"/>
<path fill="#475050" d="M56.911,92.084c3.992-8.62,13.89-12.61,22.656-9.413c3.728,7.866,6.01,20.253,5.919,30.544
	c-5.236,4.692-12.958,6.1-19.74,2.958C56.656,111.962,52.698,101.175,56.911,92.084z"/>
<polygon fill="#88AA2E" points="45.208,56.658 60.114,52.708 58.651,38.998 53.775,44.612 49.313,38.704 45.821,47.013 
	35.743,42.341 "/>
<polygon fill="#88AA2E" points="71.882,30.795 79.625,29.104 80.834,19.428 77.687,25.111 76.357,21.12 75.028,23.298 
	71.882,19.428 "/>
<polygon fill="#88AA2E" points="81.58,56.357 92.888,55.136 94.876,46.883 89.832,50.705 88.228,48.004 86.623,51.62 82.954,44.44 
	"/>
<polygon fill="#9DC31C" points="164.506,57.318 149.601,53.37 151.063,39.661 155.938,45.274 160.4,39.365 163.894,47.675 
	173.971,43.002 "/>
<polygon fill="#9DC31C" points="137.833,31.458 130.09,29.763 128.879,20.088 132.027,25.772 133.356,21.78 134.686,23.958 
	137.833,20.088 "/>
<polygon fill="#9DC31C" points="128.134,57.02 116.827,55.797 114.839,47.545 119.881,51.365 121.486,48.667 123.091,52.282 
	126.759,45.1 "/>
<polygon fill="#88AA2E" points="69.985,262.304 63.816,248.516 76.88,255.41 76.88,242.346 83.412,247.79 85.226,238.718 
	92.12,255.772 "/>
<polygon fill="#9DC31C" points="142.921,262.304 149.09,248.516 136.026,255.41 136.026,242.346 129.495,247.79 127.681,238.718 
	120.786,255.772 "/>
<polygon fill="#88AA2E" points="63.281,219.364 53.846,196.625 66.91,209.688 68.724,205.575 76.344,212.592 79.609,207.993 
	86.867,215.131 "/>
<polygon fill="#9DC31C" points="150.314,219.364 159.749,196.625 146.686,209.688 144.871,205.575 137.251,212.592 133.985,207.993 
	126.728,215.131 "/>
<path fill="#9DC31C" d="M187.594,136.634c0,0-36.069,58.342-19.205,119.402C228.45,216.022,187.594,136.634,187.594,136.634z"/>
<path fill="#88AA2E" d="M25.484,136.634c0,0,36.215,58.342,19.348,119.402C-15.228,216.022,25.484,136.634,25.484,136.634z"/>
<path fill="#F5CF1D" d="M28.358,120.872c13.332,39.552,42.435,55.376,78.276,98.492v-59.752
	C65.993,159.611,28.358,120.872,28.358,120.872z"/>
<path fill="#FCEA0D" d="M106.635,159.611v59.752c35.841-43.116,64.944-58.94,78.275-98.492
	C184.91,120.872,147.275,159.611,106.635,159.611z"/>
<path fill="#FCEA0D" d="M28.358,120.872L28.358,120.872c13.332,39.552,42.435,50.539,78.276,93.654v-59.752
	C65.993,154.774,28.358,120.872,28.358,120.872z"/>
<path fill="#F5CF1D" d="M184.913,120.872L184.913,120.872c-13.333,39.552-42.437,50.539-78.278,93.654v-59.752
	C147.275,154.774,184.913,120.872,184.913,120.872z"/>
</svg>
