<?xml version="1.0" encoding="utf-8"?>
<!-- Generator: Adobe Illustrator 15.1.0, SVG Export Plug-In . SVG Version: 6.00 Build 0)  -->
<!DOCTYPE svg PUBLIC "-//W3C//DTD SVG 1.1//EN" "http://www.w3.org/Graphics/SVG/1.1/DTD/svg11.dtd">
<svg version="1.1" id="Calque_1" xmlns="http://www.w3.org/2000/svg" xmlns:xlink="http://www.w3.org/1999/xlink" x="0px" y="0px"
	 width="200px" height="200px" viewBox="0 0 200 200" enable-background="new 0 0 200 200" xml:space="preserve">
<g>
	<path fill="#34B196" d="M75.016,149.923L86.028,82.82l13.949-44.164l90.574,50.929c-8.3-22.664-35.292-64.782-44.048-70.225
		c-10.396-6.462-83.104-5.538-93.008,0C43.594,24.898,6.992,88.822,6.992,99.907s34.408,73.915,46.504,80.547
		c6.991,3.832,32.916,5.195,55.896,4.53l-46.438-25.116L75.016,149.923z"/>
	<path fill="#2A8C78" d="M193.008,99.907c0-2.511-0.9-6.076-2.456-10.322L99.978,38.656L86.028,82.82l-11.013,67.103l-12.062,9.945
		l46.438,25.116c16.787-0.485,32.003-2.053,37.112-4.53C158.607,174.586,193.008,115.822,193.008,99.907z"/>
	<path fill="#FFFFFF" d="M100,38.656c0,0-54.607,35.715-54.768,38.266c-0.159,2.551,6.936,9.326,6.936,9.326l5.979-2.392
		c0,0,14.828,26.785,14.469,65.529h-8.729c0,0-3.827,1.435-2.632,5.739c1.196,4.305,1.436,6.219,6.457,6.219
		c5.022,0,32.287,0,32.287,0s27.263,0,32.287,0c5.021,0,5.26-1.914,6.457-6.219c1.195-4.305-2.633-5.739-2.633-5.739h-8.729
		c-0.359-38.744,14.469-65.529,14.469-65.529l5.98,2.392c0,0,7.094-6.775,6.936-9.326C154.607,74.371,100,38.656,100,38.656z
		 M100,105.142c-6.077,0-11.002-4.925-11.002-11c0-6.076,4.925-11.001,11.002-11.001c6.076,0,11.001,4.925,11.001,11.001
		C111.002,100.217,106.076,105.142,100,105.142z"/>
</g>
</svg>
