<?xml version="1.0" encoding="utf-8"?>
<!-- Generator: Adobe Illustrator 15.1.0, SVG Export Plug-In . SVG Version: 6.00 Build 0)  -->
<!DOCTYPE svg PUBLIC "-//W3C//DTD SVG 1.1//EN" "http://www.w3.org/Graphics/SVG/1.1/DTD/svg11.dtd">
<svg version="1.1" xmlns="http://www.w3.org/2000/svg" xmlns:xlink="http://www.w3.org/1999/xlink" x="0px" y="0px" width="264px"
	 height="401.425px" viewBox="0 0 264 401.425" enable-background="new 0 0 264 401.425" xml:space="preserve">
<g id="Calque_2">
</g>
<g id="Calque_1">
	<g>
		<path fill="#309F87" d="M233.287,165.51c2.904-2.33,4.618-3.845,4.921-4.115c0.568-2.578,10.044-37.265,10.044-57.47
			c0-71.117-52.047-98.518-116.252-98.518c-64.204,0-116.251,27.401-116.251,98.518c0,18.616,3.572,38.382,9.99,57.421
			c0,0,1.546,1.958,4.385,5.188c-12.672,22.043-20.053,48.436-20.053,76.809c0,77.193,54.588,139.775,121.927,139.775
			c67.34,0,121.931-62.582,121.931-139.775C253.929,214.531,246.321,187.757,233.287,165.51z"/>
		<path fill="#309F87" d="M238.262,161.347c0,0-0.021,0.019-0.054,0.048C238.161,161.609,238.175,161.604,238.262,161.347z"/>
	</g>
	<g>
		<polygon fill="#FCEA0D" points="73.607,364.998 55.56,393.242 82.847,382.074 88.64,393.242 110.085,379.119 		"/>
		<polygon fill="#F5CF1D" points="190.977,364.998 209.026,393.242 181.737,382.074 175.945,393.242 154.498,379.119 		"/>
		<g>
			<path fill="#34B196" d="M10.142,243.343c0,77.193,54.589,139.775,121.927,139.775V103.566
				C64.731,103.566,10.142,166.146,10.142,243.343z"/>
			<path fill="#309F87" d="M254,243.343c0-77.197-54.591-139.777-121.931-139.777v279.553C199.409,383.119,254,320.537,254,243.343z
				"/>
		</g>
		<path fill="#34B196" d="M15.82,103.925c0,18.616,3.573,38.382,9.99,57.421l0,0c0,0,51.091,64.741,106.261,64.741V5.407
			C67.867,5.407,15.82,32.808,15.82,103.925z"/>
		<path fill="#309F87" d="M248.323,103.925c0-71.117-52.047-98.518-116.252-98.518v201.961c55.169,0,106.262-46.021,106.262-46.021
			C237.205,164.688,248.323,125.81,248.323,103.925z"/>
		<g>
			<path fill="#DCE0E1" d="M155.803,169.235c0,0,60.008-6.229,60.101-37.542c0.092-31.32-24.995-33.368-38.845-30.185
				C163.207,104.703,150.285,150.905,155.803,169.235z"/>
			<path fill="#293A4B" d="M196.395,126.664c-4.178-12.199-16.985-18.975-29.271-15.89c-6.138,10.098-10.956,26.503-12.28,40.412
				c6.412,7.069,16.642,10.055,26.238,6.763C193.952,153.54,200.807,139.533,196.395,126.664z"/>
		</g>
		<g>
			<path fill="#EBF0F1" d="M100.541,168.806c0,0-59.042-12.4-55.896-43.556c3.148-31.161,28.312-30.604,41.761-26.004
				C99.853,103.854,107.927,151.146,100.541,168.806z"/>
			<path fill="#34495E" d="M64.569,122.266c5.42-11.701,18.859-17.118,30.758-12.778c5.061,10.678,8.157,27.495,8.035,41.464
				c-7.108,6.369-17.591,8.28-26.798,4.015C64.223,149.25,58.85,134.608,64.569,122.266z"/>
		</g>
		<polygon fill="#309F87" points="48.683,74.175 68.918,68.814 66.932,50.202 60.315,57.824 54.257,49.801 49.516,61.082 
			35.835,54.739 		"/>
		<polygon fill="#309F87" points="84.894,39.067 95.402,36.769 97.045,23.633 92.776,31.351 90.969,25.932 89.164,28.888 
			84.894,23.633 		"/>
		<polygon fill="#309F87" points="98.059,73.768 113.409,72.108 116.106,60.907 109.26,66.092 107.082,62.428 104.904,67.337 
			99.926,57.587 		"/>
		<polygon fill="#34B196" points="210.631,75.073 190.396,69.712 192.383,51.099 199.001,58.722 205.059,50.699 209.799,61.979 
			223.48,55.636 		"/>
		<polygon fill="#34B196" points="174.421,39.965 163.911,37.667 162.268,24.531 166.54,32.248 168.346,26.83 170.15,29.785 
			174.421,24.531 		"/>
		<polygon fill="#34B196" points="161.256,74.666 145.905,73.006 143.207,61.804 150.055,66.99 152.232,63.326 154.41,68.235 
			159.391,58.485 		"/>
		<polygon fill="#309F87" points="82.32,353.341 73.946,334.623 91.679,343.982 91.679,326.248 100.545,333.636 103.008,321.322 
			112.368,344.474 		"/>
		<polygon fill="#34B196" points="181.329,353.341 189.703,334.623 171.971,343.982 171.971,326.248 163.104,333.636 
			160.641,321.322 151.281,344.474 		"/>
		<polygon fill="#309F87" points="73.216,295.05 60.409,264.182 78.142,281.916 80.605,276.332 90.95,285.855 95.383,279.613 
			105.235,289.304 		"/>
		<polygon fill="#34B196" points="191.366,295.05 204.174,264.182 186.439,281.916 183.977,276.332 173.633,285.855 
			169.199,279.613 159.348,289.304 		"/>
		<path fill="#34B196" d="M241.973,182.743c0,0-48.965,79.2-26.07,162.088C297.436,290.512,241.973,182.743,241.973,182.743z"/>
		<path fill="#309F87" d="M21.908,182.743c0,0,49.161,79.2,26.265,162.088C-33.36,290.512,21.908,182.743,21.908,182.743z"/>
		<path fill="#F5CF1D" d="M25.808,161.346c18.099,53.692,57.606,75.174,106.261,133.704v-81.114
			C76.899,213.936,25.808,161.346,25.808,161.346z"/>
		<path fill="#FCEA0D" d="M132.069,213.936v81.114c48.655-58.53,88.163-80.012,106.26-133.704
			C238.329,161.346,187.24,213.936,132.069,213.936z"/>
		<path fill="#FCEA0D" d="M25.81,161.346L25.81,161.346c18.099,53.692,57.606,68.606,106.261,127.136v-81.113
			C76.901,207.369,25.81,161.346,25.81,161.346z"/>
		<path fill="#F5CF1D" d="M238.333,161.346L238.333,161.346c-18.101,53.692-57.608,68.606-106.262,127.136v-81.113
			C187.24,207.369,238.333,161.346,238.333,161.346z"/>
	</g>
</g>
</svg>
